<svg xmlns="http://www.w3.org/2000/svg" viewBox="0 0 512 512">
  <rect width="512" height="512" fill="#10b981"/>
  <path d="M256,96 C160,96 96,192 96,288 C96,384 160,448 256,448 C352,448 416,384 416,288 C416,192 352,96 256,96 Z M256,416 C192,416 128,352 128,288 C128,224 192,128 256,128 C320,128 384,224 384,288 C384,352 320,416 256,416 Z" fill="#ffffff" opacity="0.8"/>
  <path d="M256,128 L256,416" stroke="#ffffff" stroke-width="32" stroke-linecap="round"/>
  <path d="M256,224 L320,192" stroke="#ffffff" stroke-width="24" stroke-linecap="round"/>
  <path d="M256,288 L192,256" stroke="#ffffff" stroke-width="24" stroke-linecap="round"/>
  <path d="M256,352 L320,320" stroke="#ffffff" stroke-width="24" stroke-linecap="round"/>
</svg>
